<mxfile host="app.diagrams.net" agent="Mozilla/5.0 (Macintosh; Intel Mac OS X 10_15_7) AppleWebKit/537.36 (KHTML, like Gecko) Chrome/131.0.0.0 Safari/537.36" version="25.0.1">
  <diagram id="Ht1M8jgEwFfnCIfOTk4-" name="Page-1">
    <mxGraphModel dx="1886" dy="1588" grid="1" gridSize="10" guides="1" tooltips="1" connect="1" arrows="1" fold="1" page="1" pageScale="1" pageWidth="1169" pageHeight="827" math="0" shadow="0">
      <root>
        <mxCell id="0" />
        <mxCell id="1" parent="0" />
        <mxCell id="lTtix9caF7AGYvuhCAnX-8" value="" style="edgeStyle=orthogonalEdgeStyle;rounded=0;orthogonalLoop=1;jettySize=auto;html=1;" edge="1" parent="1" source="lTtix9caF7AGYvuhCAnX-6" target="lTtix9caF7AGYvuhCAnX-7">
          <mxGeometry relative="1" as="geometry" />
        </mxCell>
        <mxCell id="lTtix9caF7AGYvuhCAnX-6" value="Identify Provider&lt;br&gt;&lt;br&gt;&lt;div style=&quot;text-align: left;&quot;&gt;&lt;ol&gt;&lt;li&gt;&lt;span style=&quot;background-color: initial;&quot;&gt;Azure Active Directory&lt;/span&gt;&lt;/li&gt;&lt;li&gt;Okta&lt;/li&gt;&lt;li&gt;Keycloak&lt;/li&gt;&lt;/ol&gt;&lt;/div&gt;" style="whiteSpace=wrap;html=1;" vertex="1" parent="1">
          <mxGeometry x="125" y="-800" width="190" height="130" as="geometry" />
        </mxCell>
        <mxCell id="lTtix9caF7AGYvuhCAnX-12" style="edgeStyle=orthogonalEdgeStyle;rounded=0;orthogonalLoop=1;jettySize=auto;html=1;" edge="1" parent="1" source="lTtix9caF7AGYvuhCAnX-7" target="lTtix9caF7AGYvuhCAnX-10">
          <mxGeometry relative="1" as="geometry" />
        </mxCell>
        <mxCell id="lTtix9caF7AGYvuhCAnX-7" value="&lt;div style=&quot;text-align: center;&quot;&gt;&lt;span style=&quot;background-color: initial;&quot;&gt;Feature of AAD&lt;/span&gt;&lt;/div&gt;&lt;div&gt;&lt;br&gt;&lt;div&gt;&lt;ol&gt;&lt;li&gt;Multi Factor Authentication&lt;/li&gt;&lt;li&gt;Single Sign-on&lt;/li&gt;&lt;li&gt;Conditional Access&lt;/li&gt;&lt;li&gt;Secure IDs&lt;/li&gt;&lt;li&gt;Manage IDs, Accesses (e.g.: create AT, RT by OAuth 2)&lt;/li&gt;&lt;li&gt;Manage User, Group, Devices, Applications&lt;/li&gt;&lt;/ol&gt;&lt;/div&gt;&lt;/div&gt;" style="rounded=1;whiteSpace=wrap;html=1;align=left;arcSize=0;direction=west;" vertex="1" parent="1">
          <mxGeometry x="40" y="-640" width="360" height="230" as="geometry" />
        </mxCell>
        <mxCell id="lTtix9caF7AGYvuhCAnX-14" style="edgeStyle=orthogonalEdgeStyle;rounded=0;orthogonalLoop=1;jettySize=auto;html=1;exitX=1;exitY=0.5;exitDx=0;exitDy=0;entryX=0;entryY=0.5;entryDx=0;entryDy=0;" edge="1" parent="1" source="lTtix9caF7AGYvuhCAnX-10" target="lTtix9caF7AGYvuhCAnX-13">
          <mxGeometry relative="1" as="geometry" />
        </mxCell>
        <mxCell id="lTtix9caF7AGYvuhCAnX-10" value="API (MS Graph)&lt;br&gt;&lt;br&gt;&lt;div style=&quot;text-align: left;&quot;&gt;&lt;ol&gt;&lt;li&gt;CRUD User, Group&lt;/li&gt;&lt;li&gt;Token Validation&lt;/li&gt;&lt;li&gt;Get information: Role, Priviledge&lt;/li&gt;&lt;/ol&gt;&lt;/div&gt;" style="whiteSpace=wrap;html=1;" vertex="1" parent="1">
          <mxGeometry x="125" y="-350" width="190" height="180" as="geometry" />
        </mxCell>
        <mxCell id="lTtix9caF7AGYvuhCAnX-13" value="Token Validation&lt;br&gt;&lt;br&gt;&lt;div style=&quot;text-align: left;&quot;&gt;&lt;span style=&quot;background-color: initial;&quot;&gt;Authentication: MS Graph will check&lt;/span&gt;&lt;/div&gt;&lt;div&gt;&lt;ol&gt;&lt;li style=&quot;text-align: left;&quot;&gt;Issuner Trust (ISS)&lt;/li&gt;&lt;li style=&quot;text-align: left;&quot;&gt;Expirition (EXP)&lt;/li&gt;&lt;/ol&gt;&lt;div style=&quot;text-align: left;&quot;&gt;&lt;br&gt;&lt;/div&gt;&lt;span style=&quot;background-color: initial;&quot;&gt;Authorization: MS Graph will check&lt;/span&gt;&lt;/div&gt;&lt;div&gt;&lt;ol&gt;&lt;li style=&quot;text-align: left;&quot;&gt;Scope (SCP)&lt;/li&gt;&lt;li style=&quot;text-align: left;&quot;&gt;Roles&lt;/li&gt;&lt;/ol&gt;&lt;/div&gt;" style="whiteSpace=wrap;html=1;" vertex="1" parent="1">
          <mxGeometry x="440" y="-400" width="320" height="280" as="geometry" />
        </mxCell>
      </root>
    </mxGraphModel>
  </diagram>
</mxfile>
